<mxfile host="app.diagrams.net" modified="2023-10-08T00:23:28.469Z" agent="Mozilla/5.0 (Windows NT 10.0; Win64; x64) AppleWebKit/537.36 (KHTML, like Gecko) Chrome/116.0.0.0 Safari/537.36 OPR/102.0.0.0" etag="HZg0-9e1WKl_zfv2UVRQ" version="22.0.4" type="github">
  <diagram name="PÃ¡gina-1" id="b63Nj3Fd1wN2uxNVjQ5d">
    <mxGraphModel dx="2220" dy="804" grid="1" gridSize="10" guides="1" tooltips="1" connect="1" arrows="1" fold="1" page="1" pageScale="1" pageWidth="827" pageHeight="1169" math="0" shadow="0">
      <root>
        <mxCell id="0" />
        <mxCell id="1" parent="0" />
        <mxCell id="1HdKHvAv8hrb-b1I6tRh-1" value="View" style="shape=folder;fontStyle=1;spacingTop=10;tabWidth=40;tabHeight=14;tabPosition=left;html=1;whiteSpace=wrap;fontSize=19;align=left;verticalAlign=top;" parent="1" vertex="1">
          <mxGeometry x="440" y="320" width="240" height="250" as="geometry" />
        </mxCell>
        <mxCell id="1HdKHvAv8hrb-b1I6tRh-2" value="SMS" style="shape=folder;fontStyle=1;spacingTop=10;tabWidth=40;tabHeight=14;tabPosition=left;html=1;whiteSpace=wrap;verticalAlign=top;fontSize=19;align=left;" parent="1" vertex="1">
          <mxGeometry x="320" y="740" width="260" height="130" as="geometry" />
        </mxCell>
        <mxCell id="1HdKHvAv8hrb-b1I6tRh-3" value="Model" style="shape=folder;fontStyle=1;spacingTop=10;tabWidth=40;tabHeight=14;tabPosition=left;html=1;whiteSpace=wrap;verticalAlign=top;horizontal=1;align=left;fontSize=19;" parent="1" vertex="1">
          <mxGeometry x="-290" y="760" width="520" height="540" as="geometry" />
        </mxCell>
        <mxCell id="1HdKHvAv8hrb-b1I6tRh-4" value="Controller" style="shape=folder;fontStyle=1;spacingTop=10;tabWidth=40;tabHeight=14;tabPosition=left;html=1;whiteSpace=wrap;fontSize=19;align=left;verticalAlign=top;" parent="1" vertex="1">
          <mxGeometry x="-40" y="150" width="240" height="540" as="geometry" />
        </mxCell>
        <mxCell id="1HdKHvAv8hrb-b1I6tRh-5" value="User" style="shape=umlActor;verticalLabelPosition=bottom;verticalAlign=top;html=1;" parent="1" vertex="1">
          <mxGeometry x="500" y="140" width="50" height="80" as="geometry" />
        </mxCell>
        <mxCell id="1HdKHvAv8hrb-b1I6tRh-6" style="edgeStyle=orthogonalEdgeStyle;rounded=0;orthogonalLoop=1;jettySize=auto;html=1;entryX=0.999;entryY=0.056;entryDx=0;entryDy=0;entryPerimeter=0;" parent="1" source="1HdKHvAv8hrb-b1I6tRh-5" target="1HdKHvAv8hrb-b1I6tRh-4" edge="1">
          <mxGeometry relative="1" as="geometry">
            <Array as="points" />
            <mxPoint x="280" y="180" as="targetPoint" />
          </mxGeometry>
        </mxCell>
        <mxCell id="1HdKHvAv8hrb-b1I6tRh-8" style="edgeStyle=orthogonalEdgeStyle;rounded=0;orthogonalLoop=1;jettySize=auto;html=1;entryX=1;entryY=1;entryDx=0;entryDy=0;entryPerimeter=0;" parent="1" source="1HdKHvAv8hrb-b1I6tRh-1" target="1HdKHvAv8hrb-b1I6tRh-5" edge="1">
          <mxGeometry relative="1" as="geometry" />
        </mxCell>
        <mxCell id="1HdKHvAv8hrb-b1I6tRh-9" style="edgeStyle=orthogonalEdgeStyle;rounded=0;orthogonalLoop=1;jettySize=auto;html=1;entryX=0;entryY=0;entryDx=106;entryDy=14;entryPerimeter=0;" parent="1" source="1HdKHvAv8hrb-b1I6tRh-1" target="1HdKHvAv8hrb-b1I6tRh-2" edge="1">
          <mxGeometry relative="1" as="geometry">
            <Array as="points">
              <mxPoint x="550" y="610" />
              <mxPoint x="426" y="610" />
            </Array>
          </mxGeometry>
        </mxCell>
        <mxCell id="1HdKHvAv8hrb-b1I6tRh-11" style="edgeStyle=orthogonalEdgeStyle;rounded=0;orthogonalLoop=1;jettySize=auto;html=1;entryX=0;entryY=0;entryDx=140;entryDy=14;entryPerimeter=0;" parent="1" source="1HdKHvAv8hrb-b1I6tRh-4" target="1HdKHvAv8hrb-b1I6tRh-3" edge="1">
          <mxGeometry relative="1" as="geometry">
            <Array as="points">
              <mxPoint x="-80" y="570" />
              <mxPoint x="-80" y="570" />
            </Array>
          </mxGeometry>
        </mxCell>
        <mxCell id="1HdKHvAv8hrb-b1I6tRh-12" style="edgeStyle=orthogonalEdgeStyle;rounded=0;orthogonalLoop=1;jettySize=auto;html=1;exitX=0.75;exitY=1;exitDx=0;exitDy=0;exitPerimeter=0;entryX=0;entryY=0;entryDx=270;entryDy=14;entryPerimeter=0;" parent="1" source="1HdKHvAv8hrb-b1I6tRh-4" target="1HdKHvAv8hrb-b1I6tRh-3" edge="1">
          <mxGeometry relative="1" as="geometry" />
        </mxCell>
        <mxCell id="DcBsrwcH9TP5yVZAVN9r-1" value="AccionController" style="swimlane;fontStyle=1;align=center;verticalAlign=top;childLayout=stackLayout;horizontal=1;startSize=26;horizontalStack=0;resizeParent=1;resizeParentMax=0;resizeLast=0;collapsible=1;marginBottom=0;whiteSpace=wrap;html=1;" vertex="1" parent="1">
          <mxGeometry x="-20" y="190" width="210" height="220" as="geometry" />
        </mxCell>
        <mxCell id="DcBsrwcH9TP5yVZAVN9r-2" value="- AccionMercado accionMercado" style="text;strokeColor=none;fillColor=none;align=left;verticalAlign=top;spacingLeft=4;spacingRight=4;overflow=hidden;rotatable=0;points=[[0,0.5],[1,0.5]];portConstraint=eastwest;whiteSpace=wrap;html=1;" vertex="1" parent="DcBsrwcH9TP5yVZAVN9r-1">
          <mxGeometry y="26" width="210" height="26" as="geometry" />
        </mxCell>
        <mxCell id="DcBsrwcH9TP5yVZAVN9r-35" value="- AccionObserver accionObserver" style="text;strokeColor=none;fillColor=none;align=left;verticalAlign=top;spacingLeft=4;spacingRight=4;overflow=hidden;rotatable=0;points=[[0,0.5],[1,0.5]];portConstraint=eastwest;whiteSpace=wrap;html=1;" vertex="1" parent="DcBsrwcH9TP5yVZAVN9r-1">
          <mxGeometry y="52" width="210" height="26" as="geometry" />
        </mxCell>
        <mxCell id="DcBsrwcH9TP5yVZAVN9r-3" value="" style="line;strokeWidth=1;fillColor=none;align=left;verticalAlign=middle;spacingTop=-1;spacingLeft=3;spacingRight=3;rotatable=0;labelPosition=right;points=[];portConstraint=eastwest;strokeColor=inherit;" vertex="1" parent="DcBsrwcH9TP5yVZAVN9r-1">
          <mxGeometry y="78" width="210" height="8" as="geometry" />
        </mxCell>
        <mxCell id="DcBsrwcH9TP5yVZAVN9r-4" value="+ void addAccion(String name, double precioActual, double umbralInferior, double umbralSuperior)" style="text;strokeColor=none;fillColor=none;align=left;verticalAlign=top;spacingLeft=4;spacingRight=4;overflow=hidden;rotatable=0;points=[[0,0.5],[1,0.5]];portConstraint=eastwest;whiteSpace=wrap;html=1;" vertex="1" parent="DcBsrwcH9TP5yVZAVN9r-1">
          <mxGeometry y="86" width="210" height="74" as="geometry" />
        </mxCell>
        <mxCell id="DcBsrwcH9TP5yVZAVN9r-36" value="+&amp;nbsp;void removeAccion(String name)" style="text;strokeColor=none;fillColor=none;align=left;verticalAlign=top;spacingLeft=4;spacingRight=4;overflow=hidden;rotatable=0;points=[[0,0.5],[1,0.5]];portConstraint=eastwest;whiteSpace=wrap;html=1;" vertex="1" parent="DcBsrwcH9TP5yVZAVN9r-1">
          <mxGeometry y="160" width="210" height="26" as="geometry" />
        </mxCell>
        <mxCell id="DcBsrwcH9TP5yVZAVN9r-37" value="+&amp;nbsp;List&amp;lt;Accion&amp;gt; getAcciones()" style="text;strokeColor=none;fillColor=none;align=left;verticalAlign=top;spacingLeft=4;spacingRight=4;overflow=hidden;rotatable=0;points=[[0,0.5],[1,0.5]];portConstraint=eastwest;whiteSpace=wrap;html=1;" vertex="1" parent="DcBsrwcH9TP5yVZAVN9r-1">
          <mxGeometry y="186" width="210" height="34" as="geometry" />
        </mxCell>
        <mxCell id="DcBsrwcH9TP5yVZAVN9r-5" value="UsuarioController" style="swimlane;fontStyle=1;align=center;verticalAlign=top;childLayout=stackLayout;horizontal=1;startSize=26;horizontalStack=0;resizeParent=1;resizeParentMax=0;resizeLast=0;collapsible=1;marginBottom=0;whiteSpace=wrap;html=1;" vertex="1" parent="1">
          <mxGeometry x="-20" y="432" width="210" height="240" as="geometry" />
        </mxCell>
        <mxCell id="DcBsrwcH9TP5yVZAVN9r-6" value="-&amp;nbsp;List&amp;lt;Usuario&amp;gt; usuarios" style="text;strokeColor=none;fillColor=none;align=left;verticalAlign=top;spacingLeft=4;spacingRight=4;overflow=hidden;rotatable=0;points=[[0,0.5],[1,0.5]];portConstraint=eastwest;whiteSpace=wrap;html=1;" vertex="1" parent="DcBsrwcH9TP5yVZAVN9r-5">
          <mxGeometry y="26" width="210" height="26" as="geometry" />
        </mxCell>
        <mxCell id="DcBsrwcH9TP5yVZAVN9r-7" value="" style="line;strokeWidth=1;fillColor=none;align=left;verticalAlign=middle;spacingTop=-1;spacingLeft=3;spacingRight=3;rotatable=0;labelPosition=right;points=[];portConstraint=eastwest;strokeColor=inherit;" vertex="1" parent="DcBsrwcH9TP5yVZAVN9r-5">
          <mxGeometry y="52" width="210" height="8" as="geometry" />
        </mxCell>
        <mxCell id="DcBsrwcH9TP5yVZAVN9r-8" value="+&amp;nbsp;void addUsuario(Usuario usuario)" style="text;strokeColor=none;fillColor=none;align=left;verticalAlign=top;spacingLeft=4;spacingRight=4;overflow=hidden;rotatable=0;points=[[0,0.5],[1,0.5]];portConstraint=eastwest;whiteSpace=wrap;html=1;" vertex="1" parent="DcBsrwcH9TP5yVZAVN9r-5">
          <mxGeometry y="60" width="210" height="26" as="geometry" />
        </mxCell>
        <mxCell id="DcBsrwcH9TP5yVZAVN9r-38" value="+&amp;nbsp;void removeUsuario(String nombre)" style="text;strokeColor=none;fillColor=none;align=left;verticalAlign=top;spacingLeft=4;spacingRight=4;overflow=hidden;rotatable=0;points=[[0,0.5],[1,0.5]];portConstraint=eastwest;whiteSpace=wrap;html=1;" vertex="1" parent="DcBsrwcH9TP5yVZAVN9r-5">
          <mxGeometry y="86" width="210" height="44" as="geometry" />
        </mxCell>
        <mxCell id="DcBsrwcH9TP5yVZAVN9r-39" value="+ Usuario getUsuario(String nombre)" style="text;strokeColor=none;fillColor=none;align=left;verticalAlign=top;spacingLeft=4;spacingRight=4;overflow=hidden;rotatable=0;points=[[0,0.5],[1,0.5]];portConstraint=eastwest;whiteSpace=wrap;html=1;" vertex="1" parent="DcBsrwcH9TP5yVZAVN9r-5">
          <mxGeometry y="130" width="210" height="30" as="geometry" />
        </mxCell>
        <mxCell id="DcBsrwcH9TP5yVZAVN9r-40" value="+&amp;nbsp;void seguirAccion(Usuario usuario, Accion accion)" style="text;strokeColor=none;fillColor=none;align=left;verticalAlign=top;spacingLeft=4;spacingRight=4;overflow=hidden;rotatable=0;points=[[0,0.5],[1,0.5]];portConstraint=eastwest;whiteSpace=wrap;html=1;" vertex="1" parent="DcBsrwcH9TP5yVZAVN9r-5">
          <mxGeometry y="160" width="210" height="40" as="geometry" />
        </mxCell>
        <mxCell id="DcBsrwcH9TP5yVZAVN9r-41" value="+&amp;nbsp;void dejarDeSeguirAccion(Usuario usuario, Accion accion)" style="text;strokeColor=none;fillColor=none;align=left;verticalAlign=top;spacingLeft=4;spacingRight=4;overflow=hidden;rotatable=0;points=[[0,0.5],[1,0.5]];portConstraint=eastwest;whiteSpace=wrap;html=1;" vertex="1" parent="DcBsrwcH9TP5yVZAVN9r-5">
          <mxGeometry y="200" width="210" height="40" as="geometry" />
        </mxCell>
        <mxCell id="DcBsrwcH9TP5yVZAVN9r-10" value="Usuario" style="swimlane;fontStyle=1;align=center;verticalAlign=top;childLayout=stackLayout;horizontal=1;startSize=26;horizontalStack=0;resizeParent=1;resizeParentMax=0;resizeLast=0;collapsible=1;marginBottom=0;whiteSpace=wrap;html=1;" vertex="1" parent="1">
          <mxGeometry x="-20" y="987" width="240" height="290" as="geometry" />
        </mxCell>
        <mxCell id="DcBsrwcH9TP5yVZAVN9r-11" value="-&amp;nbsp;String nombre" style="text;strokeColor=none;fillColor=none;align=left;verticalAlign=top;spacingLeft=4;spacingRight=4;overflow=hidden;rotatable=0;points=[[0,0.5],[1,0.5]];portConstraint=eastwest;whiteSpace=wrap;html=1;" vertex="1" parent="DcBsrwcH9TP5yVZAVN9r-10">
          <mxGeometry y="26" width="240" height="26" as="geometry" />
        </mxCell>
        <mxCell id="DcBsrwcH9TP5yVZAVN9r-61" value="-&amp;nbsp;String nombre" style="text;strokeColor=none;fillColor=none;align=left;verticalAlign=top;spacingLeft=4;spacingRight=4;overflow=hidden;rotatable=0;points=[[0,0.5],[1,0.5]];portConstraint=eastwest;whiteSpace=wrap;html=1;" vertex="1" parent="DcBsrwcH9TP5yVZAVN9r-10">
          <mxGeometry y="52" width="240" height="26" as="geometry" />
        </mxCell>
        <mxCell id="DcBsrwcH9TP5yVZAVN9r-12" value="" style="line;strokeWidth=1;fillColor=none;align=left;verticalAlign=middle;spacingTop=-1;spacingLeft=3;spacingRight=3;rotatable=0;labelPosition=right;points=[];portConstraint=eastwest;strokeColor=inherit;" vertex="1" parent="DcBsrwcH9TP5yVZAVN9r-10">
          <mxGeometry y="78" width="240" height="8" as="geometry" />
        </mxCell>
        <mxCell id="DcBsrwcH9TP5yVZAVN9r-13" value="+ String getAtributos(String dato)" style="text;strokeColor=none;fillColor=none;align=left;verticalAlign=top;spacingLeft=4;spacingRight=4;overflow=hidden;rotatable=0;points=[[0,0.5],[1,0.5]];portConstraint=eastwest;whiteSpace=wrap;html=1;" vertex="1" parent="DcBsrwcH9TP5yVZAVN9r-10">
          <mxGeometry y="86" width="240" height="26" as="geometry" />
        </mxCell>
        <mxCell id="DcBsrwcH9TP5yVZAVN9r-62" value="+ void setAtributos()" style="text;strokeColor=none;fillColor=none;align=left;verticalAlign=top;spacingLeft=4;spacingRight=4;overflow=hidden;rotatable=0;points=[[0,0.5],[1,0.5]];portConstraint=eastwest;whiteSpace=wrap;html=1;" vertex="1" parent="DcBsrwcH9TP5yVZAVN9r-10">
          <mxGeometry y="112" width="240" height="26" as="geometry" />
        </mxCell>
        <mxCell id="DcBsrwcH9TP5yVZAVN9r-63" value="+&amp;nbsp;List&amp;lt;Accion&amp;gt; getAccionesSeguidas()" style="text;strokeColor=none;fillColor=none;align=left;verticalAlign=top;spacingLeft=4;spacingRight=4;overflow=hidden;rotatable=0;points=[[0,0.5],[1,0.5]];portConstraint=eastwest;whiteSpace=wrap;html=1;" vertex="1" parent="DcBsrwcH9TP5yVZAVN9r-10">
          <mxGeometry y="138" width="240" height="26" as="geometry" />
        </mxCell>
        <mxCell id="DcBsrwcH9TP5yVZAVN9r-64" value="+&amp;nbsp;void setAccionesSeguidas(List&amp;lt;Accion&amp;gt; accionesSeguidas)" style="text;strokeColor=none;fillColor=none;align=left;verticalAlign=top;spacingLeft=4;spacingRight=4;overflow=hidden;rotatable=0;points=[[0,0.5],[1,0.5]];portConstraint=eastwest;whiteSpace=wrap;html=1;" vertex="1" parent="DcBsrwcH9TP5yVZAVN9r-10">
          <mxGeometry y="164" width="240" height="36" as="geometry" />
        </mxCell>
        <mxCell id="DcBsrwcH9TP5yVZAVN9r-65" value="+&amp;nbsp;Usuario(String nombre)" style="text;strokeColor=none;fillColor=none;align=left;verticalAlign=top;spacingLeft=4;spacingRight=4;overflow=hidden;rotatable=0;points=[[0,0.5],[1,0.5]];portConstraint=eastwest;whiteSpace=wrap;html=1;" vertex="1" parent="DcBsrwcH9TP5yVZAVN9r-10">
          <mxGeometry y="200" width="240" height="26" as="geometry" />
        </mxCell>
        <mxCell id="DcBsrwcH9TP5yVZAVN9r-66" value="+&amp;nbsp;void seguirAccion(Accion accion)" style="text;strokeColor=none;fillColor=none;align=left;verticalAlign=top;spacingLeft=4;spacingRight=4;overflow=hidden;rotatable=0;points=[[0,0.5],[1,0.5]];portConstraint=eastwest;whiteSpace=wrap;html=1;" vertex="1" parent="DcBsrwcH9TP5yVZAVN9r-10">
          <mxGeometry y="226" width="240" height="26" as="geometry" />
        </mxCell>
        <mxCell id="DcBsrwcH9TP5yVZAVN9r-67" value="+&amp;nbsp;void dejarDeSeguirAccion(Accion accion)" style="text;strokeColor=none;fillColor=none;align=left;verticalAlign=top;spacingLeft=4;spacingRight=4;overflow=hidden;rotatable=0;points=[[0,0.5],[1,0.5]];portConstraint=eastwest;whiteSpace=wrap;html=1;" vertex="1" parent="DcBsrwcH9TP5yVZAVN9r-10">
          <mxGeometry y="252" width="240" height="38" as="geometry" />
        </mxCell>
        <mxCell id="DcBsrwcH9TP5yVZAVN9r-14" value="AccionObserver" style="swimlane;fontStyle=1;align=center;verticalAlign=top;childLayout=stackLayout;horizontal=1;startSize=26;horizontalStack=0;resizeParent=1;resizeParentMax=0;resizeLast=0;collapsible=1;marginBottom=0;whiteSpace=wrap;html=1;" vertex="1" parent="1">
          <mxGeometry x="-280" y="1200" width="250" height="80" as="geometry" />
        </mxCell>
        <mxCell id="DcBsrwcH9TP5yVZAVN9r-16" value="" style="line;strokeWidth=1;fillColor=none;align=left;verticalAlign=middle;spacingTop=-1;spacingLeft=3;spacingRight=3;rotatable=0;labelPosition=right;points=[];portConstraint=eastwest;strokeColor=inherit;" vertex="1" parent="DcBsrwcH9TP5yVZAVN9r-14">
          <mxGeometry y="26" width="250" height="8" as="geometry" />
        </mxCell>
        <mxCell id="DcBsrwcH9TP5yVZAVN9r-17" value="+ @Override void update(Observable o, Object arg)" style="text;strokeColor=none;fillColor=none;align=left;verticalAlign=top;spacingLeft=4;spacingRight=4;overflow=hidden;rotatable=0;points=[[0,0.5],[1,0.5]];portConstraint=eastwest;whiteSpace=wrap;html=1;" vertex="1" parent="DcBsrwcH9TP5yVZAVN9r-14">
          <mxGeometry y="34" width="250" height="46" as="geometry" />
        </mxCell>
        <mxCell id="DcBsrwcH9TP5yVZAVN9r-18" value="AccionMercado" style="swimlane;fontStyle=1;align=center;verticalAlign=top;childLayout=stackLayout;horizontal=1;startSize=26;horizontalStack=0;resizeParent=1;resizeParentMax=0;resizeLast=0;collapsible=1;marginBottom=0;whiteSpace=wrap;html=1;" vertex="1" parent="1">
          <mxGeometry x="-20" y="810" width="230" height="164" as="geometry" />
        </mxCell>
        <mxCell id="DcBsrwcH9TP5yVZAVN9r-19" value="-&amp;nbsp;List&amp;lt;Accion&amp;gt; acciones" style="text;strokeColor=none;fillColor=none;align=left;verticalAlign=top;spacingLeft=4;spacingRight=4;overflow=hidden;rotatable=0;points=[[0,0.5],[1,0.5]];portConstraint=eastwest;whiteSpace=wrap;html=1;" vertex="1" parent="DcBsrwcH9TP5yVZAVN9r-18">
          <mxGeometry y="26" width="230" height="26" as="geometry" />
        </mxCell>
        <mxCell id="DcBsrwcH9TP5yVZAVN9r-20" value="" style="line;strokeWidth=1;fillColor=none;align=left;verticalAlign=middle;spacingTop=-1;spacingLeft=3;spacingRight=3;rotatable=0;labelPosition=right;points=[];portConstraint=eastwest;strokeColor=inherit;" vertex="1" parent="DcBsrwcH9TP5yVZAVN9r-18">
          <mxGeometry y="52" width="230" height="8" as="geometry" />
        </mxCell>
        <mxCell id="DcBsrwcH9TP5yVZAVN9r-21" value="+&amp;nbsp;AccionMercado()" style="text;strokeColor=none;fillColor=none;align=left;verticalAlign=top;spacingLeft=4;spacingRight=4;overflow=hidden;rotatable=0;points=[[0,0.5],[1,0.5]];portConstraint=eastwest;whiteSpace=wrap;html=1;" vertex="1" parent="DcBsrwcH9TP5yVZAVN9r-18">
          <mxGeometry y="60" width="230" height="26" as="geometry" />
        </mxCell>
        <mxCell id="DcBsrwcH9TP5yVZAVN9r-58" value="+&amp;nbsp;void addAccion(Accion accion)" style="text;strokeColor=none;fillColor=none;align=left;verticalAlign=top;spacingLeft=4;spacingRight=4;overflow=hidden;rotatable=0;points=[[0,0.5],[1,0.5]];portConstraint=eastwest;whiteSpace=wrap;html=1;" vertex="1" parent="DcBsrwcH9TP5yVZAVN9r-18">
          <mxGeometry y="86" width="230" height="26" as="geometry" />
        </mxCell>
        <mxCell id="DcBsrwcH9TP5yVZAVN9r-59" value="+&amp;nbsp;void removeAccion(Accion accion)" style="text;strokeColor=none;fillColor=none;align=left;verticalAlign=top;spacingLeft=4;spacingRight=4;overflow=hidden;rotatable=0;points=[[0,0.5],[1,0.5]];portConstraint=eastwest;whiteSpace=wrap;html=1;" vertex="1" parent="DcBsrwcH9TP5yVZAVN9r-18">
          <mxGeometry y="112" width="230" height="26" as="geometry" />
        </mxCell>
        <mxCell id="DcBsrwcH9TP5yVZAVN9r-60" value="+&amp;nbsp;List&amp;lt;Accion&amp;gt; getAcciones()" style="text;strokeColor=none;fillColor=none;align=left;verticalAlign=top;spacingLeft=4;spacingRight=4;overflow=hidden;rotatable=0;points=[[0,0.5],[1,0.5]];portConstraint=eastwest;whiteSpace=wrap;html=1;" vertex="1" parent="DcBsrwcH9TP5yVZAVN9r-18">
          <mxGeometry y="138" width="230" height="26" as="geometry" />
        </mxCell>
        <mxCell id="DcBsrwcH9TP5yVZAVN9r-22" value="Accion" style="swimlane;fontStyle=1;align=center;verticalAlign=top;childLayout=stackLayout;horizontal=1;startSize=26;horizontalStack=0;resizeParent=1;resizeParentMax=0;resizeLast=0;collapsible=1;marginBottom=0;whiteSpace=wrap;html=1;" vertex="1" parent="1">
          <mxGeometry x="-280" y="810" width="250" height="374" as="geometry" />
        </mxCell>
        <mxCell id="DcBsrwcH9TP5yVZAVN9r-23" value="- String nombre" style="text;strokeColor=none;fillColor=none;align=left;verticalAlign=top;spacingLeft=4;spacingRight=4;overflow=hidden;rotatable=0;points=[[0,0.5],[1,0.5]];portConstraint=eastwest;whiteSpace=wrap;html=1;" vertex="1" parent="DcBsrwcH9TP5yVZAVN9r-22">
          <mxGeometry y="26" width="250" height="26" as="geometry" />
        </mxCell>
        <mxCell id="DcBsrwcH9TP5yVZAVN9r-46" value="- double precioActual" style="text;strokeColor=none;fillColor=none;align=left;verticalAlign=top;spacingLeft=4;spacingRight=4;overflow=hidden;rotatable=0;points=[[0,0.5],[1,0.5]];portConstraint=eastwest;whiteSpace=wrap;html=1;" vertex="1" parent="DcBsrwcH9TP5yVZAVN9r-22">
          <mxGeometry y="52" width="250" height="26" as="geometry" />
        </mxCell>
        <mxCell id="DcBsrwcH9TP5yVZAVN9r-47" value="- double precioAnterior" style="text;strokeColor=none;fillColor=none;align=left;verticalAlign=top;spacingLeft=4;spacingRight=4;overflow=hidden;rotatable=0;points=[[0,0.5],[1,0.5]];portConstraint=eastwest;whiteSpace=wrap;html=1;" vertex="1" parent="DcBsrwcH9TP5yVZAVN9r-22">
          <mxGeometry y="78" width="250" height="26" as="geometry" />
        </mxCell>
        <mxCell id="DcBsrwcH9TP5yVZAVN9r-49" value="- double umbralInferior" style="text;strokeColor=none;fillColor=none;align=left;verticalAlign=top;spacingLeft=4;spacingRight=4;overflow=hidden;rotatable=0;points=[[0,0.5],[1,0.5]];portConstraint=eastwest;whiteSpace=wrap;html=1;" vertex="1" parent="DcBsrwcH9TP5yVZAVN9r-22">
          <mxGeometry y="104" width="250" height="26" as="geometry" />
        </mxCell>
        <mxCell id="DcBsrwcH9TP5yVZAVN9r-48" value="- double umbralSuperior" style="text;strokeColor=none;fillColor=none;align=left;verticalAlign=top;spacingLeft=4;spacingRight=4;overflow=hidden;rotatable=0;points=[[0,0.5],[1,0.5]];portConstraint=eastwest;whiteSpace=wrap;html=1;" vertex="1" parent="DcBsrwcH9TP5yVZAVN9r-22">
          <mxGeometry y="130" width="250" height="26" as="geometry" />
        </mxCell>
        <mxCell id="DcBsrwcH9TP5yVZAVN9r-24" value="" style="line;strokeWidth=1;fillColor=none;align=left;verticalAlign=middle;spacingTop=-1;spacingLeft=3;spacingRight=3;rotatable=0;labelPosition=right;points=[];portConstraint=eastwest;strokeColor=inherit;" vertex="1" parent="DcBsrwcH9TP5yVZAVN9r-22">
          <mxGeometry y="156" width="250" height="8" as="geometry" />
        </mxCell>
        <mxCell id="DcBsrwcH9TP5yVZAVN9r-25" value="+&amp;nbsp;String double getAtrrbutos(dato)" style="text;strokeColor=none;fillColor=none;align=left;verticalAlign=top;spacingLeft=4;spacingRight=4;overflow=hidden;rotatable=0;points=[[0,0.5],[1,0.5]];portConstraint=eastwest;whiteSpace=wrap;html=1;" vertex="1" parent="DcBsrwcH9TP5yVZAVN9r-22">
          <mxGeometry y="164" width="250" height="26" as="geometry" />
        </mxCell>
        <mxCell id="DcBsrwcH9TP5yVZAVN9r-52" value="+&amp;nbsp;void setAtributos()" style="text;strokeColor=none;fillColor=none;align=left;verticalAlign=top;spacingLeft=4;spacingRight=4;overflow=hidden;rotatable=0;points=[[0,0.5],[1,0.5]];portConstraint=eastwest;whiteSpace=wrap;html=1;" vertex="1" parent="DcBsrwcH9TP5yVZAVN9r-22">
          <mxGeometry y="190" width="250" height="26" as="geometry" />
        </mxCell>
        <mxCell id="DcBsrwcH9TP5yVZAVN9r-53" value="+&amp;nbsp;Accion(String nombre, double precioActual, double precioAnterior, double umbralInferior, double umbralSuperior)" style="text;strokeColor=none;fillColor=none;align=left;verticalAlign=top;spacingLeft=4;spacingRight=4;overflow=hidden;rotatable=0;points=[[0,0.5],[1,0.5]];portConstraint=eastwest;whiteSpace=wrap;html=1;" vertex="1" parent="DcBsrwcH9TP5yVZAVN9r-22">
          <mxGeometry y="216" width="250" height="54" as="geometry" />
        </mxCell>
        <mxCell id="DcBsrwcH9TP5yVZAVN9r-54" value="+&amp;nbsp;void actualizarPrecio(double precio)" style="text;strokeColor=none;fillColor=none;align=left;verticalAlign=top;spacingLeft=4;spacingRight=4;overflow=hidden;rotatable=0;points=[[0,0.5],[1,0.5]];portConstraint=eastwest;whiteSpace=wrap;html=1;" vertex="1" parent="DcBsrwcH9TP5yVZAVN9r-22">
          <mxGeometry y="270" width="250" height="26" as="geometry" />
        </mxCell>
        <mxCell id="DcBsrwcH9TP5yVZAVN9r-55" value="+&amp;nbsp;boolean precioSuperaUmbralSuperior()" style="text;strokeColor=none;fillColor=none;align=left;verticalAlign=top;spacingLeft=4;spacingRight=4;overflow=hidden;rotatable=0;points=[[0,0.5],[1,0.5]];portConstraint=eastwest;whiteSpace=wrap;html=1;" vertex="1" parent="DcBsrwcH9TP5yVZAVN9r-22">
          <mxGeometry y="296" width="250" height="26" as="geometry" />
        </mxCell>
        <mxCell id="DcBsrwcH9TP5yVZAVN9r-56" value="+&amp;nbsp;boolean precioSuperaUmbralInferior()" style="text;strokeColor=none;fillColor=none;align=left;verticalAlign=top;spacingLeft=4;spacingRight=4;overflow=hidden;rotatable=0;points=[[0,0.5],[1,0.5]];portConstraint=eastwest;whiteSpace=wrap;html=1;" vertex="1" parent="DcBsrwcH9TP5yVZAVN9r-22">
          <mxGeometry y="322" width="250" height="26" as="geometry" />
        </mxCell>
        <mxCell id="DcBsrwcH9TP5yVZAVN9r-57" value="+ @Override&amp;nbsp;String toString()" style="text;strokeColor=none;fillColor=none;align=left;verticalAlign=top;spacingLeft=4;spacingRight=4;overflow=hidden;rotatable=0;points=[[0,0.5],[1,0.5]];portConstraint=eastwest;whiteSpace=wrap;html=1;" vertex="1" parent="DcBsrwcH9TP5yVZAVN9r-22">
          <mxGeometry y="348" width="250" height="26" as="geometry" />
        </mxCell>
        <mxCell id="DcBsrwcH9TP5yVZAVN9r-27" value="SMSService" style="swimlane;fontStyle=1;align=center;verticalAlign=top;childLayout=stackLayout;horizontal=1;startSize=26;horizontalStack=0;resizeParent=1;resizeParentMax=0;resizeLast=0;collapsible=1;marginBottom=0;whiteSpace=wrap;html=1;" vertex="1" parent="1">
          <mxGeometry x="334" y="785" width="226" height="70" as="geometry" />
        </mxCell>
        <mxCell id="DcBsrwcH9TP5yVZAVN9r-29" value="" style="line;strokeWidth=1;fillColor=none;align=left;verticalAlign=middle;spacingTop=-1;spacingLeft=3;spacingRight=3;rotatable=0;labelPosition=right;points=[];portConstraint=eastwest;strokeColor=inherit;" vertex="1" parent="DcBsrwcH9TP5yVZAVN9r-27">
          <mxGeometry y="26" width="226" height="8" as="geometry" />
        </mxCell>
        <mxCell id="DcBsrwcH9TP5yVZAVN9r-30" value="+&amp;nbsp;void sendSMS(String phoneNumber, String message)" style="text;strokeColor=none;fillColor=none;align=left;verticalAlign=top;spacingLeft=4;spacingRight=4;overflow=hidden;rotatable=0;points=[[0,0.5],[1,0.5]];portConstraint=eastwest;whiteSpace=wrap;html=1;" vertex="1" parent="DcBsrwcH9TP5yVZAVN9r-27">
          <mxGeometry y="34" width="226" height="36" as="geometry" />
        </mxCell>
        <mxCell id="DcBsrwcH9TP5yVZAVN9r-31" value="ControlDeVistaDeMercado" style="swimlane;fontStyle=1;align=center;verticalAlign=top;childLayout=stackLayout;horizontal=1;startSize=26;horizontalStack=0;resizeParent=1;resizeParentMax=0;resizeLast=0;collapsible=1;marginBottom=0;whiteSpace=wrap;html=1;" vertex="1" parent="1">
          <mxGeometry x="450" y="360" width="220" height="190" as="geometry" />
        </mxCell>
        <mxCell id="DcBsrwcH9TP5yVZAVN9r-32" value="-&amp;nbsp;AccionController controller" style="text;strokeColor=none;fillColor=none;align=left;verticalAlign=top;spacingLeft=4;spacingRight=4;overflow=hidden;rotatable=0;points=[[0,0.5],[1,0.5]];portConstraint=eastwest;whiteSpace=wrap;html=1;" vertex="1" parent="DcBsrwcH9TP5yVZAVN9r-31">
          <mxGeometry y="26" width="220" height="26" as="geometry" />
        </mxCell>
        <mxCell id="DcBsrwcH9TP5yVZAVN9r-42" value="-&amp;nbsp;UsuarioController usuarioController" style="text;strokeColor=none;fillColor=none;align=left;verticalAlign=top;spacingLeft=4;spacingRight=4;overflow=hidden;rotatable=0;points=[[0,0.5],[1,0.5]];portConstraint=eastwest;whiteSpace=wrap;html=1;" vertex="1" parent="DcBsrwcH9TP5yVZAVN9r-31">
          <mxGeometry y="52" width="220" height="26" as="geometry" />
        </mxCell>
        <mxCell id="DcBsrwcH9TP5yVZAVN9r-43" value="-&amp;nbsp;Usuario usuarioActual" style="text;strokeColor=none;fillColor=none;align=left;verticalAlign=top;spacingLeft=4;spacingRight=4;overflow=hidden;rotatable=0;points=[[0,0.5],[1,0.5]];portConstraint=eastwest;whiteSpace=wrap;html=1;" vertex="1" parent="DcBsrwcH9TP5yVZAVN9r-31">
          <mxGeometry y="78" width="220" height="26" as="geometry" />
        </mxCell>
        <mxCell id="DcBsrwcH9TP5yVZAVN9r-33" value="" style="line;strokeWidth=1;fillColor=none;align=left;verticalAlign=middle;spacingTop=-1;spacingLeft=3;spacingRight=3;rotatable=0;labelPosition=right;points=[];portConstraint=eastwest;strokeColor=inherit;" vertex="1" parent="DcBsrwcH9TP5yVZAVN9r-31">
          <mxGeometry y="104" width="220" height="8" as="geometry" />
        </mxCell>
        <mxCell id="DcBsrwcH9TP5yVZAVN9r-34" value="+&amp;nbsp;ControlDeVistaDeMercado()" style="text;strokeColor=none;fillColor=none;align=left;verticalAlign=top;spacingLeft=4;spacingRight=4;overflow=hidden;rotatable=0;points=[[0,0.5],[1,0.5]];portConstraint=eastwest;whiteSpace=wrap;html=1;" vertex="1" parent="DcBsrwcH9TP5yVZAVN9r-31">
          <mxGeometry y="112" width="220" height="26" as="geometry" />
        </mxCell>
        <mxCell id="DcBsrwcH9TP5yVZAVN9r-44" value="+&amp;nbsp;JButton getAddButton()" style="text;strokeColor=none;fillColor=none;align=left;verticalAlign=top;spacingLeft=4;spacingRight=4;overflow=hidden;rotatable=0;points=[[0,0.5],[1,0.5]];portConstraint=eastwest;whiteSpace=wrap;html=1;" vertex="1" parent="DcBsrwcH9TP5yVZAVN9r-31">
          <mxGeometry y="138" width="220" height="26" as="geometry" />
        </mxCell>
        <mxCell id="DcBsrwcH9TP5yVZAVN9r-45" value="+&amp;nbsp;void updateStockList()" style="text;strokeColor=none;fillColor=none;align=left;verticalAlign=top;spacingLeft=4;spacingRight=4;overflow=hidden;rotatable=0;points=[[0,0.5],[1,0.5]];portConstraint=eastwest;whiteSpace=wrap;html=1;" vertex="1" parent="DcBsrwcH9TP5yVZAVN9r-31">
          <mxGeometry y="164" width="220" height="26" as="geometry" />
        </mxCell>
        <mxCell id="DcBsrwcH9TP5yVZAVN9r-68" value="" style="endArrow=open;endFill=1;endSize=12;html=1;rounded=0;" edge="1" parent="1">
          <mxGeometry width="160" relative="1" as="geometry">
            <mxPoint x="-440" y="360" as="sourcePoint" />
            <mxPoint x="-280" y="360" as="targetPoint" />
          </mxGeometry>
        </mxCell>
        <mxCell id="DcBsrwcH9TP5yVZAVN9r-69" value="Hace Uso De" style="text;align=center;fontStyle=1;verticalAlign=middle;spacingLeft=3;spacingRight=3;strokeColor=none;rotatable=0;points=[[0,0.5],[1,0.5]];portConstraint=eastwest;html=1;" vertex="1" parent="1">
          <mxGeometry x="-400" y="370" width="80" height="26" as="geometry" />
        </mxCell>
        <mxCell id="DcBsrwcH9TP5yVZAVN9r-70" style="edgeStyle=orthogonalEdgeStyle;rounded=0;orthogonalLoop=1;jettySize=auto;html=1;entryX=0;entryY=0;entryDx=240;entryDy=277;entryPerimeter=0;" edge="1" parent="1" source="DcBsrwcH9TP5yVZAVN9r-42" target="1HdKHvAv8hrb-b1I6tRh-4">
          <mxGeometry relative="1" as="geometry" />
        </mxCell>
        <mxCell id="DcBsrwcH9TP5yVZAVN9r-71" style="edgeStyle=orthogonalEdgeStyle;rounded=0;orthogonalLoop=1;jettySize=auto;html=1;entryX=0;entryY=0;entryDx=240;entryDy=14;entryPerimeter=0;" edge="1" parent="1" source="1HdKHvAv8hrb-b1I6tRh-5" target="1HdKHvAv8hrb-b1I6tRh-1">
          <mxGeometry relative="1" as="geometry">
            <Array as="points">
              <mxPoint x="680" y="180" />
            </Array>
          </mxGeometry>
        </mxCell>
      </root>
    </mxGraphModel>
  </diagram>
</mxfile>
